# xmcd CD database file
#
# Track frame offsets:
#	150
#	24420
#	56155
#	78999
#	112363
#	135070
#	161819
#	183342
#
# Disc length: 2772 seconds
#
# Revision: 0
# Processed by: cddbd v1.5.1PL0 Copyright (c) Steve Scherf et al.
# Submitted via: CDex 1.51
#
DISCID=640ad208
DTITLE=Magnetic Big Band - Repetition
DYEAR=2004
DGENRE=Jazz
TTITLE0=Cookin' At The Continental
TTITLE1=Don't Forget The Poet
TTITLE2=Out Of Town
TTITLE3=E La Chiamano Estate
TTITLE4=June In January
TTITLE5=Danse Foliesque
TTITLE6=Effendi
TTITLE7=Repetition
EXTD=YEAR: 2004
EXTT0=
EXTT1=
EXTT2=
EXTT3=
EXTT4=
EXTT5=
EXTT6=
EXTT7=
PLAYORDER=
